#tb 0: 1/8000
0,          0,          0,      240,      480, 0xf1107658
0,        240,        240,      240,      480, 0x50dee179
0,        480,        480,      240,      480, 0x40090802
0,        720,        720,      240,      480, 0x3ef9f6ff
0,        960,        960,      240,      480, 0x5b7df231
0,       1200,       1200,      240,      480, 0xe266efd1
0,       1440,       1440,      240,      480, 0xfbe6e658
0,       1680,       1680,      240,      480, 0xde84f311
0,       1920,       1920,      240,      480, 0x5854ec2f
0,       2160,       2160,      240,      480, 0x4901cdea
0,       2400,       2400,      240,      480, 0x03f3e619
0,       2640,       2640,      240,      480, 0x47abfe87
0,       2880,       2880,      240,      480, 0x69dddf34
0,       3120,       3120,      240,      480, 0x1cfeee2c
0,       3360,       3360,      240,      480, 0x1860ef1c
0,       3600,       3600,      240,      480, 0x8f86e8ed
0,       3840,       3840,      240,      480, 0x307deaf8
0,       4080,       4080,      240,      480, 0xeca7eca0
0,       4320,       4320,      240,      480, 0x1835ee1c
0,       4560,       4560,      240,      480, 0x6676ed66
0,       4800,       4800,      240,      480, 0x49c2fd04
0,       5040,       5040,      240,      480, 0xc463db75
0,       5280,       5280,      240,      480, 0x1931ed7d
0,       5520,       5520,      240,      480, 0xc99ff886
0,       5760,       5760,      240,      480, 0xcd3ae8de
0,       6000,       6000,      240,      480, 0x2294ecfa
0,       6240,       6240,      240,      480, 0xcf5ef14b
0,       6480,       6480,      240,      480, 0x6325d4fe
0,       6720,       6720,      240,      480, 0x3790dcf2
0,       6960,       6960,      240,      480, 0x0fbee6c0
0,       7200,       7200,      240,      480, 0x1405fd18
0,       7440,       7440,      240,      480, 0x7799069e
0,       7680,       7680,      240,      480, 0x18c5f22e
0,       7920,       7920,      240,      480, 0xf1d1f52c
0,       8160,       8160,      240,      480, 0x7892e843
0,       8400,       8400,      240,      480, 0x44d6eb17
0,       8640,       8640,      240,      480, 0xc4e5f62d
0,       8880,       8880,      240,      480, 0x9111e907
0,       9120,       9120,      240,      480, 0xe388e6bf
0,       9360,       9360,      240,      480, 0x6351e3b1
0,       9600,       9600,      240,      480, 0xb796e5d0
0,       9840,       9840,      240,      480, 0xa370ef71
0,      10080,      10080,      240,      480, 0x59bbe65a
0,      10320,      10320,      240,      480, 0x91fde687
0,      10560,      10560,      240,      480, 0x3fb0e92f
0,      10800,      10800,      240,      480, 0xa6c2ecee
0,      11040,      11040,      240,      480, 0x99f9f4fe
0,      11280,      11280,      240,      480, 0xc0e6e73f
0,      11520,      11520,      240,      480, 0x8fd7fa4d
0,      11760,      11760,      240,      480, 0x0bcdf8d9
0,      12000,      12000,      240,      480, 0xb258f495
0,      12240,      12240,      240,      480, 0x1ae2002a
0,      12480,      12480,      240,      480, 0x1c87fd7a
0,      12720,      12720,      240,      480, 0xffac039b
0,      12960,      12960,      240,      480, 0xca6ef54c
0,      13200,      13200,      240,      480, 0x587a0197
0,      13440,      13440,      240,      480, 0xc1d804de
0,      13680,      13680,      240,      480, 0xc1bdfe52
0,      13920,      13920,      240,      480, 0xa009ef05
0,      14160,      14160,      240,      480, 0xd30df2b1
0,      14400,      14400,      240,      480, 0xda9ef5d4
0,      14640,      14640,      240,      480, 0xe9d9f5a4
0,      14880,      14880,      240,      480, 0x6ff3dc74
0,      15120,      15120,      240,      480, 0x9215ef6e
0,      15360,      15360,      240,      480, 0x40feeb2d
0,      15600,      15600,      240,      480, 0x10f0dc26
0,      15840,      15840,      240,      480, 0xa23ff362
0,      16080,      16080,      240,      480, 0xb623eb81
0,      16320,      16320,      240,      480, 0x0311edb8
0,      16560,      16560,      240,      480, 0x12a7ee93
0,      16800,      16800,      240,      480, 0xbd30e6a6
0,      17040,      17040,      240,      480, 0xcebff7a5
0,      17280,      17280,      240,      480, 0x753bf203
0,      17520,      17520,      240,      480, 0xfe00e055
0,      17760,      17760,      240,      480, 0xe26be663
0,      18000,      18000,      240,      480, 0xfee5d486
0,      18240,      18240,      240,      480, 0x0fa2de56
0,      18480,      18480,      240,      480, 0xf97ce90a
0,      18720,      18720,      240,      480, 0xb3d6df9e
0,      18960,      18960,      240,      480, 0x4f0aeac6
0,      19200,      19200,      240,      480, 0x4748f3aa
0,      19440,      19440,      240,      480, 0xe1d4e537
0,      19680,      19680,      240,      480, 0x9f70e8bf
0,      19920,      19920,      240,      480, 0x54f9ea31
0,      20160,      20160,      240,      480, 0xbc010571
0,      20400,      20400,      240,      480, 0x6ac8eb8d
0,      20640,      20640,      240,      480, 0x9730eac3
0,      20880,      20880,      240,      480, 0x7f36d8e9
0,      21120,      21120,      240,      480, 0xf68bf258
0,      21360,      21360,      240,      480, 0xf74c0678
0,      21600,      21600,      240,      480, 0xb1f3f0e8
0,      21840,      21840,      240,      480, 0x26a2e8cd
0,      22080,      22080,      240,      480, 0xd137f3c1
0,      22320,      22320,      240,      480, 0x40fad695
0,      22560,      22560,      240,      480, 0x9cd6e701
0,      22800,      22800,      240,      480, 0x360fd3d8
0,      23040,      23040,      240,      480, 0x82ceebc9
0,      23280,      23280,      240,      480, 0x7b9ffadf
0,      23520,      23520,      240,      480, 0x71bdf16c
0,      23760,      23760,      240,      480, 0x3490fe09
0,      24000,      24000,      240,      480, 0xc6c8ef00
0,      24240,      24240,      240,      480, 0xa0bae16c
0,      24480,      24480,      240,      480, 0x28a5ed2a
0,      24720,      24720,      240,      480, 0xa119ef94
0,      24960,      24960,      240,      480, 0x4d86f2e6
0,      25200,      25200,      240,      480, 0x64a5e6ff
0,      25440,      25440,      240,      480, 0x96c3e56e
0,      25680,      25680,      240,      480, 0xb4a1f069
0,      25920,      25920,      240,      480, 0x4567e28e
0,      26160,      26160,      240,      480, 0x5fa2f4e1
0,      26400,      26400,      240,      480, 0xd9c6fa80
0,      26640,      26640,      240,      480, 0x3fa1e655
0,      26880,      26880,      240,      480, 0x3cb7e8c6
0,      27120,      27120,      240,      480, 0x31ddf277
0,      27360,      27360,      240,      480, 0x2288e8a4
0,      27600,      27600,      240,      480, 0xcd78e6ca
0,      27840,      27840,      240,      480, 0x6d9ee279
0,      28080,      28080,      240,      480, 0x22eaeb23
0,      28320,      28320,      240,      480, 0x7155e65d
0,      28560,      28560,      240,      480, 0x8d2ff689
0,      28800,      28800,      240,      480, 0x76bcf658
0,      29040,      29040,      240,      480, 0xf89aed74
0,      29280,      29280,      240,      480, 0xce6cfdba
0,      29520,      29520,      240,      480, 0xac89f29d
0,      29760,      29760,      240,      480, 0x1df1e98e
0,      30000,      30000,      240,      480, 0x3494ec22
0,      30240,      30240,      240,      480, 0x4f8ce9f1
0,      30480,      30480,      240,      480, 0x8d9af998
0,      30720,      30720,      240,      480, 0xda25e2ba
0,      30960,      30960,      240,      480, 0x72f5ed30
0,      31200,      31200,      240,      480, 0xfe4ef23e
0,      31440,      31440,      240,      480, 0x5af5e61a
0,      31680,      31680,      240,      480, 0x0619f032
0,      31920,      31920,      240,      480, 0x343ef5b2
0,      32160,      32160,      240,      480, 0xc756e870
0,      32400,      32400,      240,      480, 0xe517efab
0,      32640,      32640,      240,      480, 0x1438f10f
0,      32880,      32880,      240,      480, 0xe690f0cf
0,      33120,      33120,      240,      480, 0xc165f056
0,      33360,      33360,      240,      480, 0xa8f4ed14
0,      33600,      33600,      240,      480, 0x4dbb017a
0,      33840,      33840,      240,      480, 0xa9f9da96
0,      34080,      34080,      240,      480, 0xfed7eab9
0,      34320,      34320,      240,      480, 0xa513de65
0,      34560,      34560,      240,      480, 0xc81c000f
0,      34800,      34800,      240,      480, 0x3d6aea14
0,      35040,      35040,      240,      480, 0xd379e5d8
0,      35280,      35280,      240,      480, 0x0d3fe248
0,      35520,      35520,      240,      480, 0xf390f813
0,      35760,      35760,      240,      480, 0x64bcfb81
0,      36000,      36000,      240,      480, 0x9734e3fb
0,      36240,      36240,      240,      480, 0x06b0e8f4
0,      36480,      36480,      240,      480, 0x262ef14d
0,      36720,      36720,      240,      480, 0x6044ded2
0,      36960,      36960,      240,      480, 0x17bfea9d
0,      37200,      37200,      240,      480, 0xea4cf189
0,      37440,      37440,      240,      480, 0x60a6db51
0,      37680,      37680,      240,      480, 0xbe82f67a
0,      37920,      37920,      240,      480, 0x78e0f1ec
0,      38160,      38160,      240,      480, 0x362adcc1
0,      38400,      38400,      240,      480, 0x1385dd87
0,      38640,      38640,      240,      480, 0xe4c3e5db
0,      38880,      38880,      240,      480, 0x5554ef9c
0,      39120,      39120,      240,      480, 0x96f0ef28
0,      39360,      39360,      240,      480, 0xdc0ce8ef
0,      39600,      39600,      240,      480, 0xf773e53a
0,      39840,      39840,      240,      480, 0xfbe2f469
0,      40080,      40080,      240,      480, 0x5b4be796
0,      40320,      40320,      240,      480, 0xc590dfdd
0,      40560,      40560,      240,      480, 0x0b42d8da
0,      40800,      40800,      240,      480, 0xb55bf67e
0,      41040,      41040,      240,      480, 0x7c46ebca
0,      41280,      41280,      240,      480, 0xbe01ef94
0,      41520,      41520,      240,      480, 0x3bd9f0f7
0,      41760,      41760,      240,      480, 0x5fa2f112
0,      42000,      42000,      240,      480, 0x9bd2f2a1
0,      42240,      42240,      240,      480, 0xd778ebda
0,      42480,      42480,      240,      480, 0x6336fc14
0,      42720,      42720,      240,      480, 0x6d08d575
0,      42960,      42960,      240,      480, 0xef0edeab
0,      43200,      43200,      240,      480, 0xf5ffe182
0,      43440,      43440,      240,      480, 0x69b6ea76
0,      43680,      43680,      240,      480, 0x57c1e392
0,      43920,      43920,      240,      480, 0x3777dfdc
0,      44160,      44160,      240,      480, 0x3114eacf
0,      44400,      44400,      240,      480, 0xe6dbf2eb
0,      44640,      44640,      240,      480, 0x3039d89f
0,      44880,      44880,      240,      480, 0x8b1ccb9c
0,      45120,      45120,      240,      480, 0x76f7f43a
0,      45360,      45360,      240,      480, 0xea90d80f
0,      45600,      45600,      240,      480, 0x5f4ffa87
0,      45840,      45840,      240,      480, 0xb9160016
0,      46080,      46080,      240,      480, 0x420be7ee
0,      46320,      46320,      240,      480, 0x2f93e2ef
0,      46560,      46560,      240,      480, 0xd139cee2
0,      46800,      46800,      240,      480, 0xdb7eded9
0,      47040,      47040,      240,      480, 0xe011f9f3
0,      47280,      47280,      240,      480, 0xf837f1a5
0,      47520,      47520,      240,      480, 0xb40afa17
0,      47760,      47760,      240,      480, 0x4909d8d9
0,      48000,      48000,      240,      480, 0x7dd2f952
0,      48240,      48240,      240,      480, 0xfb31faa1
0,      48480,      48480,      240,      480, 0x4eccefda
0,      48720,      48720,      240,      480, 0x8d21e606
0,      48960,      48960,      240,      480, 0x093af4fd
0,      49200,      49200,      240,      480, 0x1fbbf3f4
0,      49440,      49440,      240,      480, 0x1554e85e
0,      49680,      49680,      240,      480, 0xef42eaee
0,      49920,      49920,      240,      480, 0xe455eb0a
0,      50160,      50160,      240,      480, 0x6dd0eb6b
0,      50400,      50400,      240,      480, 0x6b3aeb41
0,      50640,      50640,      240,      480, 0x14afe4c0
0,      50880,      50880,      240,      480, 0x0a27e251
0,      51120,      51120,      240,      480, 0xf67df431
0,      51360,      51360,      240,      480, 0xa0b51257
0,      51600,      51600,      240,      480, 0x52d7fa69
0,      51840,      51840,      240,      480, 0x073bed08
0,      52080,      52080,      240,      480, 0x219eefc1
0,      52320,      52320,      240,      480, 0xb34e000a
0,      52560,      52560,      240,      480, 0x23e20510
0,      52800,      52800,      240,      480, 0xad71e3b0
0,      53040,      53040,      240,      480, 0x334bf410
0,      53280,      53280,      240,      480, 0x97cee694
0,      53520,      53520,      240,      480, 0x3da8e916
0,      53760,      53760,      240,      480, 0x7a7be512
0,      54000,      54000,      240,      480, 0x6ab6fe53
0,      54240,      54240,      240,      480, 0x9ccfe9b7
0,      54480,      54480,      240,      480, 0x62a2e52c
0,      54720,      54720,      240,      480, 0x2760ea80
0,      54960,      54960,      240,      480, 0x88eff7a3
0,      55200,      55200,      240,      480, 0xfc9efc30
0,      55440,      55440,      240,      480, 0xa52fe4fc
0,      55680,      55680,      240,      480, 0x99a7f7b9
0,      55920,      55920,      240,      480, 0x3203f8bb
0,      56160,      56160,      240,      480, 0x518cfdf7
0,      56400,      56400,      240,      480, 0xd54ddcfd
0,      56640,      56640,      240,      480, 0xa88f0485
0,      56880,      56880,      240,      480, 0x3737f0ca
0,      57120,      57120,      240,      480, 0x3f0ffa62
0,      57360,      57360,      240,      480, 0x0d9decaf
0,      57600,      57600,      240,      480, 0x525cf30f
0,      57840,      57840,      240,      480, 0xab22fc0c
0,      58080,      58080,      240,      480, 0x550ced70
0,      58320,      58320,      240,      480, 0xa4eaf5c3
0,      58560,      58560,      240,      480, 0x9e05e8a9
0,      58800,      58800,      240,      480, 0x80bae3db
0,      59040,      59040,      240,      480, 0xe362ffe1
0,      59280,      59280,      240,      480, 0x378cde56
0,      59520,      59520,      240,      480, 0x43fbe0f9
0,      59760,      59760,      240,      480, 0x45a5edff
0,      60000,      60000,      240,      480, 0x9a35cb35
0,      60240,      60240,      240,      480, 0xda83f3d2
0,      60480,      60480,      240,      480, 0xbeddee1e
0,      60720,      60720,      240,      480, 0xaa7afe85
0,      60960,      60960,      240,      480, 0x2d92f30a
0,      61200,      61200,      240,      480, 0x84c2f485
0,      61440,      61440,      240,      480, 0xce11ec38
0,      61680,      61680,      240,      480, 0x28d5d93d
0,      61920,      61920,      240,      480, 0x39dbe6f8
0,      62160,      62160,      240,      480, 0x554be339
0,      62400,      62400,      240,      480, 0x6a88e3b0
0,      62640,      62640,      240,      480, 0x8aeff482
0,      62880,      62880,      240,      480, 0xd83fe82b
0,      63120,      63120,      240,      480, 0x1a6cf184
0,      63360,      63360,      240,      480, 0x5513f0c5
0,      63600,      63600,      240,      480, 0xdddcf390
0,      63840,      63840,      240,      480, 0xca78e19d
0,      64080,      64080,      240,      480, 0x96b0f6f7
0,      64320,      64320,      240,      480, 0x72aad31f
0,      64560,      64560,      240,      480, 0x58edecb0
0,      64800,      64800,      240,      480, 0xd737ee5a
0,      65040,      65040,      240,      480, 0x7528f283
0,      65280,      65280,      240,      480, 0x05cdeceb
0,      65520,      65520,      240,      480, 0x2796dc56
0,      65760,      65760,      240,      480, 0x54fee4e6
0,      66000,      66000,      240,      480, 0x3f7deeb7
0,      66240,      66240,      240,      480, 0xebdfea77
0,      66480,      66480,      240,      480, 0x5aa6f1db
0,      66720,      66720,      240,      480, 0x0c63f71d
0,      66960,      66960,      240,      480, 0xbb0deda8
0,      67200,      67200,      240,      480, 0x0f83f678
0,      67440,      67440,      240,      480, 0x4214e932
0,      67680,      67680,      240,      480, 0x4169efcd
0,      67920,      67920,      240,      480, 0x4340f534
0,      68160,      68160,      240,      480, 0x6f90ebc5
0,      68400,      68400,      240,      480, 0x1eaae708
0,      68640,      68640,      240,      480, 0x3e5ce943
0,      68880,      68880,      240,      480, 0x5ceff61e
0,      69120,      69120,      240,      480, 0x24eee552
0,      69360,      69360,      240,      480, 0xedf5f7ac
0,      69600,      69600,      240,      480, 0xbd8cebc9
0,      69840,      69840,      240,      480, 0xb9a9eee0
0,      70080,      70080,      240,      480, 0x1d7ff617
0,      70320,      70320,      240,      480, 0x8611f44d
0,      70560,      70560,      240,      480, 0x794de152
0,      70800,      70800,      240,      480, 0xda6bee00
0,      71040,      71040,      240,      480, 0x5122d7b1
0,      71280,      71280,      240,      480, 0x0291d148
0,      71520,      71520,      240,      480, 0xa063ea3d
0,      71760,      71760,      240,      480, 0xee6eeb6b
0,      72000,      72000,      240,      480, 0x5594e81f
0,      72240,      72240,      240,      480, 0x8035f408
0,      72480,      72480,      240,      480, 0x3598e00c
0,      72720,      72720,      240,      480, 0x9a0ee752
0,      72960,      72960,      240,      480, 0x678bea20
0,      73200,      73200,      240,      480, 0x0441eb68
0,      73440,      73440,      240,      480, 0xd65defa8
0,      73680,      73680,      240,      480, 0xc3e0e524
0,      73920,      73920,      240,      480, 0x0af6e12b
0,      74160,      74160,      240,      480, 0x3edc0021
0,      74400,      74400,      240,      480, 0x0b10f9b3
0,      74640,      74640,      240,      480, 0x4d9ee325
0,      74880,      74880,      240,      480, 0xcb3ce73f
0,      75120,      75120,      240,      480, 0x8159de93
0,      75360,      75360,      240,      480, 0x3abff41f
0,      75600,      75600,      240,      480, 0x0978ebe0
0,      75840,      75840,      240,      480, 0x3114e844
0,      76080,      76080,      240,      480, 0x3d5ff78c
0,      76320,      76320,      240,      480, 0xb63fe928
0,      76560,      76560,      240,      480, 0x0edee840
0,      76800,      76800,      240,      480, 0x7552fe3c
0,      77040,      77040,      240,      480, 0x5604fb5b
0,      77280,      77280,      240,      480, 0x5afef3b1
0,      77520,      77520,      240,      480, 0x2b05dc98
0,      77760,      77760,      240,      480, 0x7662cfc3
0,      78000,      78000,      240,      480, 0x51c7e6c6
0,      78240,      78240,      240,      480, 0xcd3bdb59
0,      78480,      78480,      240,      480, 0xfef9de3c
0,      78720,      78720,      240,      480, 0xb226e189
0,      78960,      78960,      240,      480, 0x460dd55e
0,      79200,      79200,      240,      480, 0xf180e7ca
0,      79440,      79440,      240,      480, 0x890703f2
0,      79680,      79680,      240,      480, 0xb085c83a
0,      79920,      79920,      240,      480, 0x395fd502
0,      80160,      80160,      240,      480, 0x0539ebd7
0,      80400,      80400,      240,      480, 0xa5c80c26
0,      80640,      80640,      240,      480, 0xb657c93a
0,      80880,      80880,      240,      480, 0x68d7e5f4
0,      81120,      81120,      240,      480, 0x44edce5d
0,      81360,      81360,      240,      480, 0x08cab784
0,      81600,      81600,      240,      480, 0x0ea2f6cf
0,      81840,      81840,      240,      480, 0xd2b6d996
0,      82080,      82080,      240,      480, 0x835be702
0,      82320,      82320,      240,      480, 0x50ba18ae
0,      82560,      82560,      240,      480, 0x8c2bddb3
0,      82800,      82800,      240,      480, 0x71a0e2e1
0,      83040,      83040,      240,      480, 0xe438e180
0,      83280,      83280,      240,      480, 0x5978df8c
0,      83520,      83520,      240,      480, 0x367b154f
0,      83760,      83760,      240,      480, 0x1ca3e47d
0,      84000,      84000,      240,      480, 0x36c4e2c8
0,      84240,      84240,      240,      480, 0xf80bec7c
0,      84480,      84480,      240,      480, 0x1b1af7e7
0,      84720,      84720,      240,      480, 0xe017ef64
0,      84960,      84960,      240,      480, 0xcd52ecb6
0,      85200,      85200,      240,      480, 0x3d52f226
0,      85440,      85440,      240,      480, 0xf8a70d8b
0,      85680,      85680,      240,      480, 0xbd98fc30
0,      85920,      85920,      240,      480, 0x27edf695
0,      86160,      86160,      240,      480, 0xb280f82a
0,      86400,      86400,      240,      480, 0x7a49e897
0,      86640,      86640,      240,      480, 0x7d4b14aa
0,      86880,      86880,      240,      480, 0x0a2dd188
0,      87120,      87120,      240,      480, 0x5758fad4
0,      87360,      87360,      240,      480, 0x635df42a
0,      87600,      87600,      240,      480, 0xecfbf9f2
0,      87840,      87840,      240,      480, 0xaf1b1323
0,      88080,      88080,      240,      480, 0x765c0863
0,      88320,      88320,      240,      480, 0x6932ef19
0,      88560,      88560,      240,      480, 0xf141f116
0,      88800,      88800,      240,      480, 0x36e3dad5
0,      89040,      89040,      240,      480, 0x0c62f9f0
0,      89280,      89280,      240,      480, 0xe544f6ec
0,      89520,      89520,      240,      480, 0xcecae867
0,      89760,      89760,      240,      480, 0x52fe0156
0,      90000,      90000,      240,      480, 0xb5bdf888
0,      90240,      90240,      240,      480, 0xa3b4e939
0,      90480,      90480,      240,      480, 0xbc8ef686
0,      90720,      90720,      240,      480, 0x5949f402
0,      90960,      90960,      240,      480, 0x2fb3f2d5
0,      91200,      91200,      240,      480, 0xd0bcf841
0,      91440,      91440,      240,      480, 0x072ef4d4
0,      91680,      91680,      240,      480, 0xba11e1a9
0,      91920,      91920,      240,      480, 0xb90f0335
0,      92160,      92160,      240,      480, 0x2bd9ec36
0,      92400,      92400,      240,      480, 0x1364e028
0,      92640,      92640,      240,      480, 0xcfbf0a27
0,      92880,      92880,      240,      480, 0xe44104cc
0,      93120,      93120,      240,      480, 0x6c0cee3f
0,      93360,      93360,      240,      480, 0x33eaeef2
0,      93600,      93600,      240,      480, 0xf4a0e655
0,      93840,      93840,      240,      480, 0x78d4eb93
0,      94080,      94080,      240,      480, 0xd40ff5bc
0,      94320,      94320,      240,      480, 0xb61ce9c6
0,      94560,      94560,      240,      480, 0x150eede8
0,      94800,      94800,      240,      480, 0x74b6e8b6
0,      95040,      95040,      240,      480, 0x138b09ca
0,      95280,      95280,      240,      480, 0xe8b6fa50
0,      95520,      95520,      240,      480, 0x8394eec9
0,      95760,      95760,      240,      480, 0xb06e06f4
0,      96000,      96000,      240,      480, 0x06eae60f
0,      96240,      96240,      240,      480, 0x9ca6cff2
0,      96480,      96480,      240,      480, 0x1871e075
0,      96720,      96720,      240,      480, 0xf02eec59
0,      96960,      96960,      240,      480, 0x062cee9e
0,      97200,      97200,      240,      480, 0xa77aedb5
0,      97440,      97440,      240,      480, 0x4455e21f
0,      97680,      97680,      240,      480, 0xafeee6e6
0,      97920,      97920,      240,      480, 0x0b82f1ff
0,      98160,      98160,      240,      480, 0xe364036c
0,      98400,      98400,      240,      480, 0x7cfae4c0
0,      98640,      98640,      240,      480, 0xf5c4e4e9
0,      98880,      98880,      240,      480, 0x1574e28c
0,      99120,      99120,      240,      480, 0x7920f03c
0,      99360,      99360,      240,      480, 0x6397e707
0,      99600,      99600,      240,      480, 0xd560e13e
0,      99840,      99840,      240,      480, 0x00aee485
0,     100080,     100080,      240,      480, 0xf49ce8b2
0,     100320,     100320,      240,      480, 0x447dee5a
0,     100560,     100560,      240,      480, 0x8cbbeb41
0,     100800,     100800,      240,      480, 0xdacef48c
0,     101040,     101040,      240,      480, 0x631ee590
0,     101280,     101280,      240,      480, 0xd05fe342
0,     101520,     101520,      240,      480, 0xe133e157
0,     101760,     101760,      240,      480, 0xbfc9eca8
0,     102000,     102000,      240,      480, 0x118bf5e3
0,     102240,     102240,      240,      480, 0x11e0e94e
0,     102480,     102480,      240,      480, 0x29c2eec5
0,     102720,     102720,      240,      480, 0x3e56f2d8
0,     102960,     102960,      240,      480, 0x09cbd46f
0,     103200,     103200,      240,      480, 0xc5bcddde
0,     103440,     103440,      240,      480, 0x695bed67
0,     103680,     103680,      240,      480, 0xaa43f15b
0,     103920,     103920,      240,      480, 0xae2aee2f
0,     104160,     104160,      240,      480, 0x2fc1ec4b
0,     104400,     104400,      240,      480, 0x1d27de9a
0,     104640,     104640,      240,      480, 0xfb2eecb1
0,     104880,     104880,      240,      480, 0x11d101df
0,     105120,     105120,      240,      480, 0x9dbeec1e
0,     105360,     105360,      240,      480, 0x4ddbd880
0,     105600,     105600,      240,      480, 0xa392ed57
0,     105840,     105840,      240,      480, 0x9fa3feea
0,     106080,     106080,      240,      480, 0xc54ff2e0
0,     106320,     106320,      240,      480, 0x1f40dd1d
0,     106560,     106560,      240,      480, 0xc596e1e6
0,     106800,     106800,      240,      480, 0xc0ddecc3
0,     107040,     107040,      240,      480, 0x39f4f886
0,     107280,     107280,      240,      480, 0x56fbe00b
0,     107520,     107520,      240,      480, 0x94a5e540
0,     107760,     107760,      240,      480, 0x7b29f6b8
0,     108000,     108000,      240,      480, 0x7caddcc6
0,     108240,     108240,      240,      480, 0xbb1bfa44
0,     108480,     108480,      240,      480, 0x397edcd5
0,     108720,     108720,      240,      480, 0xb98a0356
0,     108960,     108960,      240,      480, 0x645beefb
0,     109200,     109200,      240,      480, 0x40a50336
0,     109440,     109440,      240,      480, 0xad17e202
0,     109680,     109680,      240,      480, 0x87d0ec24
0,     109920,     109920,      240,      480, 0xd2c0eda7
0,     110160,     110160,      240,      480, 0x1299e863
0,     110400,     110400,      240,      480, 0x81a1001f
0,     110640,     110640,      240,      480, 0x658af096
0,     110880,     110880,      240,      480, 0xffc9faf7
0,     111120,     111120,      240,      480, 0xc321cc23
0,     111360,     111360,      240,      480, 0x1f3beb5f
0,     111600,     111600,      240,      480, 0x3d69e538
0,     111840,     111840,      240,      480, 0xb595ecfe
0,     112080,     112080,      240,      480, 0xe56ce589
0,     112320,     112320,      240,      480, 0x6286ed7c
0,     112560,     112560,      240,      480, 0x07aae900
0,     112800,     112800,      240,      480, 0xef3de9b5
0,     113040,     113040,      240,      480, 0x1a7be08e
0,     113280,     113280,      240,      480, 0x5d06002c
0,     113520,     113520,      240,      480, 0x90f80b14
0,     113760,     113760,      240,      480, 0x0c3b080b
0,     114000,     114000,      240,      480, 0x869be7c0
0,     114240,     114240,      240,      480, 0xf13feab0
0,     114480,     114480,      240,      480, 0x646c0de1
0,     114720,     114720,      240,      480, 0x5791f4b2
0,     114960,     114960,      240,      480, 0xea5cf35f
0,     115200,     115200,      240,      480, 0xe241e1fe
0,     115440,     115440,      240,      480, 0x5a9ded06
0,     115680,     115680,      240,      480, 0x5848e2e9
0,     115920,     115920,      240,      480, 0xbc5fd95b
0,     116160,     116160,      240,      480, 0x897fc541
0,     116400,     116400,      240,      480, 0xb597d109
0,     116640,     116640,      240,      480, 0xd650f62b
0,     116880,     116880,      240,      480, 0x2dd1e46e
0,     117120,     117120,      240,      480, 0x17b5f672
0,     117360,     117360,      240,      480, 0xb7b7e0e3
0,     117600,     117600,      240,      480, 0xabadd179
0,     117840,     117840,      240,      480, 0xee74e72d
0,     118080,     118080,      240,      480, 0x394fde0b
0,     118320,     118320,      240,      480, 0xc7afe221
0,     118560,     118560,      240,      480, 0x1e1af1f3
0,     118800,     118800,      240,      480, 0x0e40e6ed
0,     119040,     119040,      240,      480, 0x44f7e8bb
0,     119280,     119280,      240,      480, 0xc8d9e8dd
0,     119520,     119520,      240,      480, 0x92d8e816
0,     119760,     119760,      240,      480, 0x45aaec30
0,     120000,     120000,      240,      480, 0x54b4f49c
0,     120240,     120240,      240,      480, 0x92aad5ba
0,     120480,     120480,      240,      480, 0x8176d82c
0,     120720,     120720,      240,      480, 0xaafad8f4
0,     120960,     120960,      240,      480, 0x2d69eded
0,     121200,     121200,      240,      480, 0x6b45fb9d
0,     121440,     121440,      240,      480, 0x196ee78e
0,     121680,     121680,      240,      480, 0xf414da38
0,     121920,     121920,      240,      480, 0x7887f797
0,     122160,     122160,      240,      480, 0x45cdecab
0,     122400,     122400,      240,      480, 0x7febfa7f
0,     122640,     122640,      240,      480, 0x96c7f5d4
0,     122880,     122880,      240,      480, 0x9242dd44
0,     123120,     123120,      240,      480, 0x68bef327
0,     123360,     123360,      240,      480, 0x9358f4c3
0,     123600,     123600,      240,      480, 0xef94ddce
0,     123840,     123840,      240,      480, 0x08caf104
0,     124080,     124080,      240,      480, 0xcd1e0640
0,     124320,     124320,      240,      480, 0x660cff75
0,     124560,     124560,      240,      480, 0x3d82e3ad
0,     124800,     124800,      240,      480, 0x4e23fe73
0,     125040,     125040,      240,      480, 0x1ce8db94
0,     125280,     125280,      240,      480, 0x1366e645
0,     125520,     125520,      240,      480, 0xabd9f10d
0,     125760,     125760,      240,      480, 0xdb2de99f
0,     126000,     126000,      240,      480, 0xbde4f3f2
0,     126240,     126240,      240,      480, 0x2bd8ee14
0,     126480,     126480,      240,      480, 0x257efd5e
0,     126720,     126720,      240,      480, 0x3d87fb68
0,     126960,     126960,      240,      480, 0x0c6aeba1
0,     127200,     127200,      240,      480, 0x54bde0b5
0,     127440,     127440,      240,      480, 0x2f9fe7c0
0,     127680,     127680,      240,      480, 0xef42e757
0,     127920,     127920,      240,      480, 0x9100e70b
0,     128160,     128160,      240,      480, 0x9383ea06
0,     128400,     128400,      240,      480, 0x5e1cf956
0,     128640,     128640,      240,      480, 0xe9f6e7d5
0,     128880,     128880,      240,      480, 0x1309eb4e
0,     129120,     129120,      240,      480, 0x2ca1e90c
0,     129360,     129360,      240,      480, 0xe199e9e4
0,     129600,     129600,      240,      480, 0x4e8bec25
0,     129840,     129840,      240,      480, 0x07bed40a
0,     130080,     130080,      240,      480, 0xce45de92
0,     130320,     130320,      240,      480, 0x6149d899
0,     130560,     130560,      240,      480, 0xb12be922
0,     130800,     130800,      240,      480, 0x8764f204
0,     131040,     131040,      240,      480, 0x8789f535
0,     131280,     131280,      240,      480, 0x8058fddf
0,     131520,     131520,      240,      480, 0x75e5e521
0,     131760,     131760,      240,      480, 0xa4b8f080
0,     132000,     132000,      240,      480, 0xf917f8d6
0,     132240,     132240,      240,      480, 0xda38f064
0,     132480,     132480,      240,      480, 0x8e45e756
0,     132720,     132720,      240,      480, 0xff58f82b
0,     132960,     132960,      240,      480, 0x133cec2a
0,     133200,     133200,      240,      480, 0xf998ee33
0,     133440,     133440,      240,      480, 0xc3bddd3f
0,     133680,     133680,      240,      480, 0x48e4f8b6
0,     133920,     133920,      240,      480, 0xeb24e4e9
0,     134160,     134160,      240,      480, 0x713cea78
0,     134400,     134400,      240,      480, 0xfb6bdf98
0,     134640,     134640,      240,      480, 0xa07bf1e0
0,     134880,     134880,      240,      480, 0x6cd8e34c
0,     135120,     135120,      240,      480, 0x0c2cecfe
0,     135360,     135360,      240,      480, 0x957fdde2
0,     135600,     135600,      240,      480, 0x801cf3e2
0,     135840,     135840,      240,      480, 0x1e87e4a9
0,     136080,     136080,      240,      480, 0xf7c30076
0,     136320,     136320,      240,      480, 0x9a38dff8
0,     136560,     136560,      240,      480, 0x1e1cff2a
0,     136800,     136800,      240,      480, 0xede7f2ff
0,     137040,     137040,      240,      480, 0x7679e57f
0,     137280,     137280,      240,      480, 0x7a70e73c
0,     137520,     137520,      240,      480, 0x6e73db1f
0,     137760,     137760,      240,      480, 0x74c2e3fd
0,     138000,     138000,      240,      480, 0xe8e0fb14
0,     138240,     138240,      240,      480, 0x539ae001
0,     138480,     138480,      240,      480, 0x3ae2e5fb
0,     138720,     138720,      240,      480, 0x665ae842
0,     138960,     138960,      240,      480, 0x4b26e782
0,     139200,     139200,      240,      480, 0xe258e114
0,     139440,     139440,      240,      480, 0x3e90e718
0,     139680,     139680,      240,      480, 0xabf7def1
0,     139920,     139920,      240,      480, 0x0a570b95
0,     140160,     140160,      240,      480, 0xbb03ec4d
0,     140400,     140400,      240,      480, 0x8002f2cb
0,     140640,     140640,      240,      480, 0x5fafd1a3
0,     140880,     140880,      240,      480, 0x23ef55d6
0,     141120,     141120,      240,      480, 0xf05c21fa
0,     141360,     141360,      240,      480, 0xbebe2fe4
0,     141600,     141600,      240,      480, 0xd24d37d6
0,     141840,     141840,      240,      480, 0xf88823f2
0,     142080,     142080,      240,      480, 0x93801bfe
0,     142320,     142320,      240,      480, 0xeaf61bfe
0,     142560,     142560,      240,      480, 0x7e2a1bfc
0,     142800,     142800,      240,      480, 0xafeb23f0
0,     143040,     143040,      240,      480, 0x00000000
0,     143280,     143280,      240,      480, 0x00000000
0,     143520,     143520,      240,      480, 0x00000000
0,     143760,     143760,      240,      480, 0x00000000
0,     144000,     144000,      240,      480, 0x00000000
0,     144240,     144240,      240,      480, 0x00000000
0,     144480,     144480,      240,      480, 0x00000000
0,     144720,     144720,      240,      480, 0x00000000
0,     144960,     144960,      240,      480, 0x00000000
0,     145200,     145200,      240,      480, 0x00000000
0,     145440,     145440,      240,      480, 0x00000000
0,     145680,     145680,      240,      480, 0x00000000
0,     145920,     145920,      240,      480, 0x00000000
0,     146160,     146160,      240,      480, 0x00000000
0,     146400,     146400,      240,      480, 0x00000000
0,     146640,     146640,      240,      480, 0x00000000
0,     146880,     146880,      240,      480, 0x00000000
0,     147120,     147120,      240,      480, 0x00000000
0,     147360,     147360,      240,      480, 0x00000000
0,     147600,     147600,      240,      480, 0x00000000
0,     147840,     147840,      240,      480, 0x00000000
0,     148080,     148080,      240,      480, 0x00000000
0,     148320,     148320,      240,      480, 0x00000000
0,     148560,     148560,      240,      480, 0x00000000
0,     148800,     148800,      240,      480, 0x00000000
0,     149040,     149040,      240,      480, 0x00000000
0,     149280,     149280,      240,      480, 0x00000000
0,     149520,     149520,      240,      480, 0x00000000
0,     149760,     149760,      240,      480, 0x00000000
0,     150000,     150000,      240,      480, 0x00000000
0,     150240,     150240,      240,      480, 0x00000000
0,     150480,     150480,      240,      480, 0x00000000
0,     150720,     150720,      240,      480, 0x00000000
0,     150960,     150960,      240,      480, 0x00000000
0,     151200,     151200,      240,      480, 0x00000000
0,     151440,     151440,      240,      480, 0x00000000
0,     151680,     151680,      240,      480, 0x00000000
0,     151920,     151920,      240,      480, 0x00000000
0,     152160,     152160,      240,      480, 0x00000000
0,     152400,     152400,      240,      480, 0x00000000
0,     152640,     152640,      240,      480, 0x00000000
0,     152880,     152880,      240,      480, 0x00000000
0,     153120,     153120,      240,      480, 0x00000000
0,     153360,     153360,      240,      480, 0x00000000
0,     153600,     153600,      240,      480, 0x00000000
0,     153840,     153840,      240,      480, 0x00000000
0,     154080,     154080,      240,      480, 0x00000000
0,     154320,     154320,      240,      480, 0x00000000
0,     154560,     154560,      240,      480, 0x00000000
0,     154800,     154800,      240,      480, 0x00000000
0,     155040,     155040,      240,      480, 0x00000000
0,     155280,     155280,      240,      480, 0x00000000
0,     155520,     155520,      240,      480, 0x00000000
0,     155760,     155760,      240,      480, 0x00000000
0,     156000,     156000,      240,      480, 0x00000000
0,     156240,     156240,      240,      480, 0x00000000
0,     156480,     156480,      240,      480, 0x00000000
0,     156720,     156720,      240,      480, 0x00000000
0,     156960,     156960,      240,      480, 0x00000000
0,     157200,     157200,      240,      480, 0x00000000
0,     157440,     157440,      240,      480, 0x00000000
0,     157680,     157680,      240,      480, 0x00000000
0,     157920,     157920,      240,      480, 0x00000000
0,     158160,     158160,      240,      480, 0x00000000
0,     158400,     158400,      240,      480, 0x00000000
0,     158640,     158640,      240,      480, 0x00000000
0,     158880,     158880,      240,      480, 0x00000000
0,     159120,     159120,      240,      480, 0x00000000
0,     159360,     159360,      240,      480, 0x00000000
0,     159600,     159600,      240,      480, 0x00000000
0,     159840,     159840,      240,      480, 0x00000000
0,     160080,     160080,      240,      480, 0x00000000
0,     160320,     160320,      240,      480, 0x00000000
0,     160560,     160560,      240,      480, 0x00000000
0,     160800,     160800,      240,      480, 0x00000000
0,     161040,     161040,      240,      480, 0x00000000
0,     161280,     161280,      240,      480, 0x00000000
0,     161520,     161520,      240,      480, 0x00000000
0,     161760,     161760,      240,      480, 0x00000000
0,     162000,     162000,      240,      480, 0x00000000
0,     162240,     162240,      240,      480, 0x00000000
0,     162480,     162480,      240,      480, 0x00000000
0,     162720,     162720,      240,      480, 0x00000000
0,     162960,     162960,      240,      480, 0x00000000
0,     163200,     163200,      240,      480, 0x00000000
0,     163440,     163440,      240,      480, 0x00000000
0,     163680,     163680,      240,      480, 0x00000000
0,     163920,     163920,      240,      480, 0x00000000
0,     164160,     164160,      240,      480, 0x00000000
0,     164400,     164400,      240,      480, 0x00000000
0,     164640,     164640,      240,      480, 0x00000000
0,     164880,     164880,      240,      480, 0x00000000
0,     165120,     165120,      240,      480, 0x00000000
0,     165360,     165360,      240,      480, 0x00000000
0,     165600,     165600,      240,      480, 0x00000000
0,     165840,     165840,      240,      480, 0x00000000
0,     166080,     166080,      240,      480, 0x00000000
0,     166320,     166320,      240,      480, 0x00000000
0,     166560,     166560,      240,      480, 0x00000000
0,     166800,     166800,      240,      480, 0x00000000
0,     167040,     167040,      240,      480, 0x00000000
0,     167280,     167280,      240,      480, 0x00000000
0,     167520,     167520,      240,      480, 0x00000000
0,     167760,     167760,      240,      480, 0x00000000
0,     168000,     168000,      240,      480, 0x00000000
0,     168240,     168240,      240,      480, 0x00000000
0,     168480,     168480,      240,      480, 0x00000000
0,     168720,     168720,      240,      480, 0x00000000
0,     168960,     168960,      240,      480, 0x00000000
0,     169200,     169200,      240,      480, 0x00000000
0,     169440,     169440,      240,      480, 0x00000000
0,     169680,     169680,      240,      480, 0x00000000
0,     169920,     169920,      240,      480, 0x00000000
0,     170160,     170160,      240,      480, 0x00000000
0,     170400,     170400,      240,      480, 0x00000000
0,     170640,     170640,      240,      480, 0x00000000
0,     170880,     170880,      240,      480, 0x00000000
0,     171120,     171120,      240,      480, 0x00000000
0,     171360,     171360,      240,      480, 0x00000000
0,     171600,     171600,      240,      480, 0x00000000
0,     171840,     171840,      240,      480, 0x00000000
0,     172080,     172080,      240,      480, 0x00000000
0,     172320,     172320,      240,      480, 0x00000000
0,     172560,     172560,      240,      480, 0x00000000
0,     172800,     172800,      240,      480, 0x00000000
0,     173040,     173040,      240,      480, 0x00000000
0,     173280,     173280,      240,      480, 0x00000000
0,     173520,     173520,      240,      480, 0x00000000
0,     173760,     173760,      240,      480, 0x00000000
0,     174000,     174000,      240,      480, 0x00000000
0,     174240,     174240,      240,      480, 0x00000000
0,     174480,     174480,      240,      480, 0x00000000
0,     174720,     174720,      240,      480, 0x00000000
0,     174960,     174960,      240,      480, 0x00000000
0,     175200,     175200,      240,      480, 0x00000000
0,     175440,     175440,      240,      480, 0x00000000
0,     175680,     175680,      240,      480, 0x00000000
0,     175920,     175920,      240,      480, 0x00000000
0,     176160,     176160,      240,      480, 0x00000000
0,     176400,     176400,      240,      480, 0x00000000
